<?xml version="1.0" encoding="utf-8"?>
<!-- Generator: Adobe Illustrator 19.2.0, SVG Export Plug-In . SVG Version: 6.00 Build 0)  -->
<svg version="1.1" id="Layer_1" xmlns="http://www.w3.org/2000/svg" xmlns:xlink="http://www.w3.org/1999/xlink" x="0px" y="0px"
	 viewBox="0 0 50 50" style="enable-background:new 0 0 50 50;" xml:space="preserve">
<style type="text/css">
	.st0{fill:#FFFFFF;}
</style>
<path class="st0" d="M44.2,9.5c0-0.8-0.7-1.5-1.5-1.5H8.4C7.6,8,6.9,8.7,6.9,9.5v31.4c0,0.8,0.7,1.5,1.5,1.5h34.3
	c0.8,0,1.5-0.7,1.5-1.5V9.5z M21.7,10.4h17.7c0.9,0,1.5,0.8,1.5,1.7c0,0.9-0.7,1.7-1.5,1.7H21.7c-0.9,0-1.5-0.8-1.5-1.7
	C20.1,11.2,20.8,10.4,21.7,10.4z M16.7,10.3c1,0,1.7,0.8,1.7,1.8c0,1-0.8,1.8-1.7,1.8c-1,0-1.7-0.8-1.7-1.8
	C15,11.1,15.8,10.3,16.7,10.3z M11.5,10.3c1,0,1.7,0.8,1.7,1.8c0,1-0.8,1.8-1.7,1.8c-1,0-1.7-0.8-1.7-1.8
	C9.8,11.1,10.6,10.3,11.5,10.3z M41.5,39.4H9.8V16.3h31.8V39.4z"/>
<path class="st0" d="M24.9,22.9h-8.9c-0.8,0-1.5-0.6-1.5-1.4s0.7-1.4,1.5-1.4h8.9c0.8,0,1.5,0.6,1.5,1.4S25.7,22.9,24.9,22.9z"/>
<path class="st0" d="M24.9,29.4h-8.9c-0.8,0-1.5-0.7-1.5-1.5s0.7-1.5,1.5-1.5h8.9c0.8,0,1.5,0.7,1.5,1.5S25.7,29.4,24.9,29.4z"/>
<path class="st0" d="M35.7,35.7H15.6c-0.8,0-1.5-0.7-1.5-1.5s0.7-1.5,1.5-1.5h20.1c0.8,0,1.5,0.7,1.5,1.5S36.5,35.7,35.7,35.7z"/>
<path class="st0" d="M35.3,29.4h-5.3c-0.7,0-1.2-0.5-1.2-1.2v-6.8c0-0.7,0.5-1.2,1.2-1.2h5.3c0.7,0,1.2,0.5,1.2,1.2v6.8
	C36.5,28.8,36,29.4,35.3,29.4z"/>
</svg>
